<svg version="1.1" id="Layer_1" xmlns="http://www.w3.org/2000/svg" xmlns:xlink="http://www.w3.org/1999/xlink" x="0px" y="0px"
	 width="100%" viewBox="0 0 1024 880" enable-background="new 0 0 1024 880" xml:space="preserve">
<path fill="#000000" opacity="1.000000" stroke="none" 
	d="
M337.478577,512.547058 
	C333.313782,508.281128 329.148407,504.480530 325.909973,499.716339 
	C327.953522,498.416229 328.641876,499.974335 329.501678,500.744812 
	C344.976227,514.612488 358.075500,516.210510 376.536896,506.528046 
	C388.922852,500.031921 399.208252,490.755035 409.530640,481.564850 
	C421.484100,470.922363 432.850800,459.661530 443.086761,447.337341 
	C445.449158,444.492920 447.292664,444.166595 450.641388,445.818604 
	C470.056335,455.396606 489.687042,464.539246 509.053192,474.212708 
	C513.344604,476.356201 515.963684,475.978394 519.412720,472.777740 
	C550.110291,444.290985 576.848572,412.550964 599.271790,377.150024 
	C618.576355,346.672760 632.693604,313.911041 643.062439,279.451721 
	C645.956604,269.833374 645.769409,269.672821 636.170105,271.549377 
	C631.515259,272.459290 626.832153,273.224304 622.161804,274.054871 
	C621.917175,273.665894 621.672485,273.276917 621.427856,272.887909 
	C633.977356,258.005249 646.526855,243.122574 659.910828,227.250290 
	C666.784546,246.197266 673.307922,264.178314 680.327515,283.527435 
	C672.337585,280.822662 666.802612,276.252899 660.222046,273.327484 
	C657.410767,277.665100 657.456421,282.455933 656.579102,286.879028 
	C645.472900,342.871857 622.107849,393.361115 588.505188,439.286133 
	C570.652832,463.684998 551.071899,486.565338 528.240601,506.474823 
	C517.456055,515.879150 521.042847,514.622559 509.663666,508.757324 
	C491.011108,499.143250 472.475311,489.299377 453.989594,479.367584 
	C450.110168,477.283295 447.421143,477.451080 443.837433,480.385620 
	C430.175079,491.573029 416.035919,502.151459 400.542023,510.760559 
	C388.920319,517.218079 376.805023,522.030396 363.255188,522.324280 
	C353.452209,522.536804 344.958252,519.409973 337.478577,512.547058 
z"/>
<path fill="#000000" opacity="1.000000" stroke="none" 
	d="
M393.651306,335.622437 
	C371.396454,377.429718 370.335419,419.494965 390.104645,462.090546 
	C393.208588,468.778442 393.323822,468.724915 387.646271,473.446106 
	C380.536163,479.358551 380.536194,479.358582 376.462433,471.146393 
	C333.458435,384.455353 378.213776,282.094727 471.347748,255.804672 
	C516.369385,243.095856 559.039124,250.164734 598.323914,275.976593 
	C603.922546,279.655151 603.883850,280.168396 598.759094,284.392822 
	C591.469116,290.402039 591.469116,290.402069 583.559631,285.678436 
	C524.749756,250.556534 450.971191,263.175720 407.062805,315.937775 
	C402.053223,321.957489 397.684265,328.467102 393.651306,335.622437 
z"/>
<path fill="#000000" opacity="1.000000" stroke="none" 
	d="
M618.152466,489.158813 
	C639.517273,462.772003 649.885559,432.849976 649.592896,399.318390 
	C649.489563,387.479889 647.792542,375.756104 644.307495,364.396820 
	C643.459656,361.633209 643.388977,359.270844 644.738831,356.757263 
	C647.367859,351.861603 648.697632,346.287598 652.181580,341.433014 
	C676.272522,389.276917 672.058044,468.490143 610.804016,519.355286 
	C546.195618,573.005920 460.038086,558.872070 415.901154,518.969910 
	C419.612366,515.588806 423.896912,513.146973 428.143616,510.742279 
	C430.278625,509.533295 431.860535,511.603729 433.416351,512.717346 
	C451.191101,525.439758 470.785065,533.626099 492.461243,536.841858 
	C532.816772,542.828857 568.583801,532.320374 600.241943,507.017639 
	C606.759033,501.808838 612.693237,495.959045 618.152466,489.158813 
z"/>
<path fill="#000000" opacity="1.000000" stroke="none" 
	d="
M464.249420,406.635193 
	C463.646637,400.722290 460.601135,397.666046 455.564789,395.245209 
	C444.012573,389.692352 432.813202,383.404449 421.486725,377.384491 
	C420.048035,376.619873 418.389435,376.086609 417.089539,373.464996 
	C434.515442,367.445129 451.778687,361.481506 469.859131,355.235535 
	C467.363800,368.202728 468.542999,379.743835 471.636505,391.955170 
	C475.276215,389.915863 478.215271,388.434753 480.988251,386.689789 
	C507.642029,369.916962 534.272461,353.107056 560.891846,336.279724 
	C562.858887,335.036255 564.703796,333.596039 566.576782,332.208588 
	C567.820618,331.287201 568.906372,330.230743 568.386169,328.455139 
	C567.815491,326.507263 566.219116,326.167480 564.488037,325.932373 
	C563.083008,325.741486 561.490051,326.485687 559.612793,324.513214 
	C573.622314,318.249756 587.921204,313.886810 602.375732,309.110474 
	C593.486694,327.550903 583.839661,345.295197 572.530151,362.369019 
	C570.569153,360.521118 571.796692,359.357208 572.302551,358.336578 
	C574.751099,353.396057 575.388062,348.170074 574.971863,342.766785 
	C574.575623,337.622498 571.394958,336.016510 567.246338,339.232391 
	C556.323120,347.699829 545.528992,356.336884 534.785583,365.032532 
	C518.080750,378.553253 501.486267,392.210327 484.773956,405.721741 
	C482.501953,407.558594 480.786774,409.027740 482.628448,412.247955 
	C483.667328,414.064484 481.351135,416.400421 482.875366,418.508270 
	C484.671722,418.138519 483.714722,415.550293 486.126770,415.245911 
	C489.939514,416.817749 492.751953,420.375977 495.906708,423.481598 
	C497.111725,424.667847 496.790344,425.988403 495.598999,426.947998 
	C488.889282,432.352570 482.136871,437.704163 474.610535,443.702148 
	C470.177765,431.042389 467.571167,418.944580 464.249420,406.635193 
z"/>
<path fill="#000000" opacity="1.000000" stroke="none" 
	d="
M237.106583,606.952271 
	C247.753204,606.956299 257.912262,606.958374 268.071320,606.957764 
	C274.613464,606.957397 275.127747,607.386292 275.202118,612.929871 
	C275.279114,618.667725 274.853699,619.098633 268.408264,619.114014 
	C261.247131,619.131104 254.079895,619.223755 246.926727,618.966675 
	C242.477539,618.806702 242.152313,621.302612 242.276108,624.678589 
	C242.392990,627.866272 241.712692,631.182495 246.798416,630.998230 
	C253.284698,630.763367 259.791962,631.120239 266.279510,630.903381 
	C270.884857,630.749329 271.359924,633.330139 271.289307,636.941711 
	C271.222687,640.349426 271.266235,643.300293 266.467255,643.139404 
	C259.979401,642.921814 253.471436,643.274902 246.986115,643.022644 
	C242.075256,642.831665 242.174423,645.849670 242.321350,649.207642 
	C242.460403,652.385925 241.287827,656.187927 246.822601,656.025635 
	C254.310913,655.805969 261.809692,655.918762 269.303925,655.932068 
	C275.279694,655.942688 275.641235,656.575439 275.765198,663.679626 
	C275.847839,668.413269 272.664825,668.012451 269.657166,668.023376 
	C258.165771,668.065186 246.670959,667.915833 235.184372,668.161621 
	C230.685425,668.257874 229.525146,666.469727 229.574860,662.247620 
	C229.765030,646.095032 229.648926,629.938965 229.663742,613.784180 
	C229.669983,606.962585 229.688660,606.962585 237.106583,606.952271 
z"/>
<path fill="#000000" opacity="1.000000" stroke="none" 
	d="
M780.747009,628.820801 
	C782.871826,621.960327 784.319153,621.400269 794.410828,623.333557 
	C794.694092,627.088928 792.544617,630.223999 791.442749,633.583618 
	C788.123474,643.703918 784.366211,653.684021 781.207764,663.851807 
	C779.947693,667.908264 777.445801,668.187744 774.022034,668.220825 
	C770.447021,668.255249 768.072876,667.469421 766.972168,663.569397 
	C764.952942,656.415039 762.920837,649.232971 759.286438,640.923462 
	C756.614258,648.773193 754.372437,655.287109 752.180603,661.817749 
	C749.992249,668.338135 749.494263,668.602173 742.496948,668.227234 
	C739.977051,668.092163 738.544128,667.139038 737.730957,664.732605 
	C733.254883,651.485413 728.685242,638.269836 724.176758,625.033569 
	C724.031067,624.605896 724.199280,624.071350 724.231140,623.365356 
	C727.612000,622.114746 731.095276,622.664795 734.503906,622.885986 
	C736.799011,623.034912 737.049988,625.220398 737.575317,626.941711 
	C739.882141,634.499512 742.162415,642.065308 744.885925,651.060120 
	C747.712891,642.205444 750.350891,634.894165 752.320068,627.406860 
	C753.445190,623.128845 755.930847,622.602539 759.642822,622.588623 
	C763.250671,622.575073 765.488098,623.336548 766.572632,627.257324 
	C768.592468,634.559143 771.147278,641.713013 774.632690,648.992493 
	C776.638062,642.401184 778.643433,635.809875 780.747009,628.820801 
z"/>
<path fill="#000000" opacity="1.000000" stroke="none" 
	d="
M370.269196,660.128235 
	C361.494843,670.190247 352.643494,671.135864 340.355865,663.096863 
	C340.355865,668.082886 340.074280,672.684387 340.433746,677.235229 
	C340.805634,681.943481 338.908203,683.375854 334.424194,683.206970 
	C330.397400,683.055176 327.449982,683.113403 327.565063,677.480103 
	C327.901978,660.988586 327.650146,644.485474 327.712585,627.987244 
	C327.720062,626.014648 326.859833,622.915833 330.087433,622.930847 
	C333.499664,622.946655 337.859955,620.361145 340.110626,625.418640 
	C340.297485,625.838501 340.551575,626.228394 340.777222,626.637207 
	C351.820862,619.939575 360.712128,620.244873 368.126190,627.505066 
	C376.003815,635.219177 377.009003,649.018494 370.269196,660.128235 
M360.036987,637.687927 
	C357.304871,633.743164 353.501617,632.099487 348.819489,632.828125 
	C344.620941,633.481567 342.055115,636.201721 340.738678,640.131653 
	C338.922455,645.553589 340.603912,652.168396 344.620911,655.196045 
	C348.494568,658.115540 352.561066,658.320679 356.712067,655.730225 
	C361.063049,653.015015 362.937836,647.725647 361.641296,641.598816 
	C361.403687,640.475952 360.859497,639.418030 360.036987,637.687927 
z"/>
<path fill="#000000" opacity="1.000000" stroke="none" 
	d="
M618.268921,618.512207 
	C610.951172,620.434387 614.777588,625.962036 614.355530,629.814941 
	C613.931396,633.685791 617.595825,632.734619 619.883179,632.781311 
	C626.044983,632.907166 632.215271,632.999939 638.373230,632.812256 
	C643.018127,632.670654 643.296021,635.376465 643.314758,638.934753 
	C643.333496,642.492981 642.610168,644.598938 638.380127,644.463806 
	C631.724915,644.251282 625.055359,644.532959 618.392639,644.487976 
	C615.237122,644.466675 613.895569,645.774048 613.985107,648.984436 
	C614.124329,653.978088 613.964478,658.979370 614.012695,663.976624 
	C614.040955,666.905396 612.732849,668.019897 609.784302,668.174683 
	C601.090759,668.631104 600.908630,668.533752 600.897522,659.727600 
	C600.877869,644.067383 600.948425,628.405151 600.702271,612.748169 
	C600.634338,608.428833 601.938171,606.830994 606.371460,606.917725 
	C617.862183,607.142578 629.362122,607.080505 640.854980,606.907532 
	C645.010803,606.844910 646.424988,608.481750 646.316467,612.546936 
	C646.217407,616.258423 646.047058,619.203369 641.152771,619.011658 
	C633.667236,618.718445 626.172607,618.657288 618.268921,618.512207 
z"/>
<path fill="#000000" opacity="1.000000" stroke="none" 
	d="
M413.219604,666.579712 
	C397.198273,671.832397 383.342743,665.256042 380.225372,650.947205 
	C378.298706,642.103577 380.174072,633.870667 386.997223,627.642212 
	C393.793671,621.438293 402.044891,620.083130 410.751038,622.975281 
	C419.894257,626.012695 426.483765,637.629944 424.792603,647.007629 
	C424.256775,649.978882 422.142639,650.015869 419.916595,650.007019 
	C412.932312,649.979126 405.947845,649.882690 398.964081,649.923462 
	C397.197144,649.933777 395.320160,649.433716 393.649017,650.480957 
	C395.087463,657.405212 402.367615,660.102356 409.817688,656.522644 
	C415.924530,653.588318 416.864594,653.784851 422.067963,659.272522 
	C420.098480,662.628662 417.040131,664.748840 413.219604,666.579712 
M394.052216,640.736267 
	C398.684021,640.803894 403.315765,640.905823 407.947723,640.916870 
	C409.234863,640.919922 410.787689,641.052734 411.381622,639.522461 
	C411.991791,637.950317 411.133453,636.556824 410.164673,635.434448 
	C407.361389,632.186768 403.601654,631.386536 399.765381,632.631653 
	C396.258240,633.769836 393.201172,635.872803 394.052216,640.736267 
z"/>
<path fill="#000000" opacity="1.000000" stroke="none" 
	d="
M562.864990,628.201477 
	C566.940552,633.405762 568.437866,639.006592 568.444275,645.220764 
	C568.448181,648.965454 566.947998,650.162048 563.374512,650.099243 
	C554.751404,649.947754 546.123901,650.050171 537.483765,650.050171 
	C538.484314,657.201294 546.169800,660.255127 553.692932,656.594360 
	C559.998169,653.526123 560.336487,653.593140 565.712891,658.974304 
	C561.251526,669.065491 543.520142,671.394043 533.656921,664.978882 
	C522.574829,657.771179 520.063965,641.046692 528.546753,630.100464 
	C536.564880,619.753845 552.369873,618.743835 562.864990,628.201477 
M541.373718,633.614746 
	C539.207092,635.361694 536.920776,637.037781 537.190247,640.577515 
	C542.263550,641.422424 547.203613,640.986633 552.123047,640.950745 
	C556.152954,640.921387 556.004150,638.748291 554.432373,636.082458 
	C552.259277,632.396667 547.740356,631.407288 541.373718,633.614746 
z"/>
<path fill="#000000" opacity="1.000000" stroke="none" 
	d="
M474.255920,634.210632 
	C474.341431,644.101013 474.174896,653.585754 474.509094,663.052856 
	C474.690674,668.195740 471.653839,668.026978 468.117859,668.145447 
	C464.283905,668.273987 461.663971,667.748596 461.858124,662.879944 
	C462.129608,656.072754 462.005219,649.243469 461.859344,642.427795 
	C461.736023,636.666565 458.963379,633.590393 454.070770,633.350647 
	C449.023224,633.103394 446.101532,635.638184 444.992981,641.248474 
	C443.683594,647.874939 444.819641,654.508972 444.930725,661.141235 
	C445.034119,667.316833 439.361877,670.656250 433.921143,667.730347 
	C432.630737,667.036438 432.614502,665.965698 432.599426,664.784607 
	C432.442596,652.483398 432.253479,640.182556 432.136108,627.880981 
	C432.112488,625.407227 431.886993,622.298767 435.697205,622.784607 
	C439.063324,623.213745 444.223419,619.975952 444.911499,626.756775 
	C458.949249,618.007629 469.914368,620.675171 474.255920,634.210632 
z"/>
<path fill="#000000" opacity="1.000000" stroke="none" 
	d="
M689.957397,654.027222 
	C694.483398,657.892822 699.154785,658.897156 703.934875,655.634827 
	C708.408386,652.581787 710.664551,648.204041 709.167053,642.707520 
	C708.230957,639.271423 710.735535,637.880188 712.494507,636.072144 
	C713.964050,634.561584 715.000549,632.511658 717.150024,631.759705 
	C724.010132,637.100281 724.433899,652.722534 716.268860,660.990784 
	C709.182617,668.166504 700.449890,670.063782 690.998169,667.620972 
	C681.409912,665.142944 675.834045,658.524414 674.056152,648.737427 
	C671.743591,636.006775 682.061218,622.756653 695.262085,621.768677 
	C700.062317,621.409424 704.903198,621.303589 709.427795,623.605896 
	C712.217041,625.025085 713.337524,626.479309 710.688721,629.207703 
	C707.582214,632.407410 705.320068,635.365662 699.580811,632.916199 
	C693.245117,630.212097 685.119446,639.584717 686.620972,647.044189 
	C687.113342,649.490479 687.900513,651.879395 689.957397,654.027222 
z"/>
<path fill="#000000" opacity="1.000000" stroke="none" 
	d="
M317.529572,630.486633 
	C315.051483,634.064758 312.973297,637.498413 310.478149,640.596252 
	C308.195984,643.429688 308.438416,645.683716 310.509186,648.537598 
	C314.682343,654.289001 318.517761,660.285339 322.675659,666.452332 
	C309.876099,672.303711 305.744598,662.945801 300.825287,653.513916 
	C295.195831,661.973511 291.535767,672.486206 278.458832,666.467285 
	C282.327454,660.885803 285.884399,655.317017 289.902618,650.103821 
	C292.782471,646.367493 292.973480,643.362000 289.944183,639.545227 
	C286.072357,634.666931 282.800201,629.312744 278.624512,623.222778 
	C284.200012,622.643738 289.043427,621.083801 292.593109,623.758911 
	C295.837250,626.203735 297.640686,630.560303 300.698334,634.966980 
	C305.329376,626.080200 310.720978,619.148254 321.986450,623.332214 
	C321.511322,626.110596 318.981781,627.799072 317.529572,630.486633 
z"/>
<path fill="#000000" opacity="1.000000" stroke="none" 
	d="
M496.757568,649.385498 
	C486.573822,645.975891 483.127655,642.255981 483.346039,635.242371 
	C483.556702,628.477966 487.598450,623.819824 494.944733,622.229614 
	C501.904755,620.722961 508.478577,622.307556 514.824524,625.191467 
	C517.290894,626.312317 518.095703,628.031494 516.435547,630.338684 
	C514.983948,632.356079 514.897339,636.418762 510.560516,634.472656 
	C507.221161,632.974121 503.834564,631.568359 500.097076,631.391174 
	C498.111511,631.297119 496.268219,631.807434 495.636902,633.822632 
	C494.921448,636.106262 496.767700,637.192261 498.460602,637.878418 
	C501.538391,639.125793 504.727570,640.096191 507.859467,641.212524 
	C516.110596,644.153381 519.525269,648.476196 518.923584,655.184387 
	C518.338501,661.707825 513.254822,666.834961 505.608765,668.060364 
	C497.952454,669.287415 490.704376,667.717407 483.984100,663.848511 
	C482.188965,662.815063 480.148376,661.445007 482.201050,659.249084 
	C484.012939,657.310547 484.128235,652.340881 488.963135,654.883179 
	C492.647736,656.820801 496.368927,658.716431 500.705841,658.694824 
	C503.173615,658.682556 505.711731,658.290283 506.278107,655.552185 
	C506.837891,652.846130 504.362152,651.992920 502.346802,651.201355 
	C500.646027,650.533386 498.877960,650.036926 496.757568,649.385498 
z"/>
<path fill="#000000" opacity="1.000000" stroke="none" 
	d="
M666.051636,665.564697 
	C662.913513,669.702332 658.869629,668.311401 655.419556,667.436890 
	C652.558655,666.711609 653.798462,663.430847 653.784363,661.280029 
	C653.675354,644.628418 653.685364,627.975769 653.701660,611.323486 
	C653.707275,605.530579 653.774536,605.809570 661.691650,605.471497 
	C666.494080,605.266418 666.192017,608.032104 666.185425,611.164856 
	C666.147400,629.148499 666.147156,647.132141 666.051636,665.564697 
z"/>
<path fill="#000000" opacity="1.000000" stroke="none" 
	d="
M804.628845,589.509521 
	C805.029724,589.161499 805.150452,589.045044 805.285583,588.948730 
	C808.061218,586.970337 811.228516,583.382019 814.313049,587.003418 
	C817.514160,590.761597 812.231812,592.103699 810.489502,594.129700 
	C804.636047,600.935791 798.375671,607.390686 792.317627,614.022461 
	C788.169556,618.563416 786.802673,618.585938 782.854370,614.058594 
	C780.448853,611.300293 777.983521,608.594055 775.540039,605.869019 
	C774.249939,604.430298 773.178955,602.943848 774.701599,601.040100 
	C776.224792,599.135681 778.181946,599.273865 780.111938,600.164612 
	C781.146240,600.641968 782.229858,601.324646 782.908203,602.208618 
	C786.407776,606.768982 788.987854,605.297241 792.200500,601.571472 
	C795.877075,597.307739 800.272400,593.663757 804.628845,589.509521 
z"/>
</svg>